<svg xmlns="http://www.w3.org/2000/svg" viewBox="0 0 1024 1024"><defs><style>.cls-1{fill:#474143;}.cls-2{fill:orange;}</style></defs><title>Brackets</title><g id="Brackets"><path class="cls-1" d="M413.76,298.09,377.24,468.52q-3.06,12.94-11.8,26.63A96.81,96.81,0,0,1,343,519.5q13.69,15.22,13.69,38.8V564a34.36,34.36,0,0,1-.76,6.47l-38,178.8h39.57L343.76,817H244.85a14.68,14.68,0,0,1-8.75-3q-4.2-3.06-4.19-11.42a36,36,0,0,1,.76-8.37l41.85-197.82a63.78,63.78,0,0,0,.76-11.42q0-14.45-6.47-24.34a26.93,26.93,0,0,0-17.88-12.18l12.94-59.35a27.55,27.55,0,0,0,14.84-4.56A58.11,58.11,0,0,0,292,472.71a85.1,85.1,0,0,0,10.27-15.22A61.54,61.54,0,0,0,308,442.65l39.56-189.46q3-14.44,10.66-18.64t11.41-4.18h98.91l-15.22,67.72Z"/><path class="cls-1" d="M707.44,298.09l14.46-67.72h98.15c2.53,0,5.32,1,8.37,3s4.56,6.35,4.56,12.94a23.28,23.28,0,0,1-.76,6.84L791.89,442.65a42.58,42.58,0,0,0-1.52,9.89,50.72,50.72,0,0,0,6.47,24.73q6.46,11.81,19.4,11.79l-12.93,59.35q-15.22,3-27.77,16.36a64.16,64.16,0,0,0-16.36,31.58L717.33,794.17q-3,12.93-9.89,17.88t-12.18,5H597.11l14.46-67.72h39.56l38-178.8q3-12.93,11.79-26.63a103.85,103.85,0,0,1,21.69-24.35,60.52,60.52,0,0,1-12.94-38V475a18,18,0,0,1,1.52-6.47L747,298.09Z"/><path class="cls-2" d="M372.87,274.72,336.35,445.15q-3.06,12.94-11.8,26.63a96.85,96.85,0,0,1-22.45,24.35q13.71,15.22,13.7,38.81v5.7a34.27,34.27,0,0,1-.76,6.47L277,725.92h39.56l-13.69,67.71H204a14.71,14.71,0,0,1-8.75-3q-4.19-3-4.18-11.41a35.87,35.87,0,0,1,.76-8.37L233.63,573a63.66,63.66,0,0,0,.76-11.41q0-14.45-6.47-24.35A26.94,26.94,0,0,0,210,525.05L223,465.7a27.51,27.51,0,0,0,14.84-4.57,57.71,57.71,0,0,0,13.32-11.79,85.28,85.28,0,0,0,10.27-15.22,61.48,61.48,0,0,0,5.7-14.84l39.57-189.45q3-14.45,10.65-18.64T328.74,207h98.91l-15.22,67.72Z"/><path class="cls-2" d="M666.55,274.72,681,207h98.16c2.53,0,5.32,1,8.36,3s4.57,6.35,4.57,12.94a23.36,23.36,0,0,1-.76,6.85L751,419.28a42.57,42.57,0,0,0-1.52,9.9A50.57,50.57,0,0,0,756,453.9q6.45,11.81,19.4,11.8l-12.94,59.35q-15.23,3-27.77,16.35A64.32,64.32,0,0,0,718.28,573L676.44,770.81q-3.06,12.93-9.89,17.88c-4.57,3.29-8.64,4.94-12.18,4.94H556.22l14.46-67.71h39.56l38-178.81q3-12.93,11.8-26.63a103.58,103.58,0,0,1,21.68-24.35,60.51,60.51,0,0,1-12.93-38v-6.47a18,18,0,0,1,1.52-6.47l35.76-170.43Z"/></g></svg>