<svg id="Brush" xmlns="http://www.w3.org/2000/svg" viewBox="0 0 1024 1024"><defs><style>.cls-1{fill:#474143;}.cls-2{opacity:0;}.cls-3{fill:#fff;}.cls-4{fill:orange;}.cls-5{fill:#282425;}</style></defs><title>Brush</title><path class="cls-1" d="M602.71,799.5l20.18-11.41,28,64.15c3.48,8-2.5,11.38-7.56,4.27Z"/><path class="cls-1" d="M434.73,356,616.45,773.26l-23.11,13.06L329.5,415.46c-2.85-4-3.28-9-.87-10.38l97.67-55.21C428.7,348.51,432.76,351.45,434.73,356Z"/><path class="cls-1" d="M400.47,276.85a66.6,66.6,0,0,1-116,65.55s-.93-1.85-2.6-5.11l0,0c-13.82-26.93-77.95-150.48-92.64-151.4C189.25,185.85,325.36,144,400.47,276.85Z"/><g class="cls-2"><path class="cls-3" d="M238.89,179.59c46.48,0,115.5,15.75,161.58,97.26a66.6,66.6,0,1,1-116,65.55s-.93-1.85-2.6-5.11l0,0c-13.82-26.93-77.95-150.48-92.64-151.4,0,0,20.35-6.26,49.64-6.26m0-23.74v0h0c-32.48,0-55.64,7-56.61,7.3L57.83,201.41l122.9,7.69c4.64,5.62,15.89,21.2,39.09,62.48,17.68,31.48,34.52,64,40.94,76.51l.22.43,0,0c1.44,2.8,2.24,4.4,2.27,4.47l.27.53.29.52a90.35,90.35,0,1,0,157.3-88.92c-23-40.66-53.55-70.54-90.85-88.82-27.74-13.6-58.49-20.49-91.39-20.49Z"/></g><path class="cls-4" d="M613.36,783.51l20.19-11.41,28,64.15c3.48,8-2.5,11.39-7.56,4.27Z"/><path class="cls-4" d="M445.39,340,627.11,757.27,604,770.33,340.16,399.47c-2.85-4-3.28-9-.87-10.37L437,333.89C439.36,332.53,443.42,335.47,445.39,340Z"/><path class="cls-4" d="M411.13,260.86a66.6,66.6,0,1,1-116,65.55s-.93-1.84-2.6-5.1l0,0c-13.82-26.93-78-150.49-92.64-151.41C199.91,169.86,336,128,411.13,260.86Z"/><g class="cls-2"><path class="cls-3" d="M249.55,163.6c46.48,0,115.5,15.75,161.58,97.26a66.6,66.6,0,1,1-116,65.55s-.93-1.84-2.6-5.1l0,0c-13.82-26.93-78-150.49-92.64-151.41,0,0,20.35-6.25,49.64-6.26m0-23.74v0h0c-32.48,0-55.64,7-56.61,7.31L68.49,185.42l122.9,7.7c4.64,5.61,15.89,21.19,39.08,62.48,17.69,31.48,34.53,64,41,76.5l.22.43,0,0c1.44,2.81,2.25,4.41,2.28,4.47l.26.53.3.52a90.34,90.34,0,0,0,157.29-88.91c-23-40.66-53.55-70.55-90.84-88.83-27.74-13.59-58.49-20.49-91.39-20.49Z"/></g><path class="cls-5" d="M834.75,244.48c-1.67,5.22-2.65,8.15-2.65,8.15C832.88,249.84,833.76,247.11,834.75,244.48Z"/></svg>