<svg xmlns="http://www.w3.org/2000/svg" viewBox="0 0 1024 1024"><defs><style>.cls-1,.cls-2,.cls-3{fill:none;stroke:orange;stroke-miterlimit:10;}.cls-1{stroke-width:27px;}.cls-2{stroke-width:21.29px;}.cls-3{stroke-linecap:round;stroke-width:18.6px;}.cls-4{fill:orange;}.cls-5{fill:#fff;}</style></defs><title>Code</title><g id="Design_Pencil" data-name="Design Pencil"><rect class="cls-1" x="288.6" y="275.75" width="400" height="300" rx="33.79" ry="33.79"/><path class="cls-2" d="M671.36,868.3H299.88c-20.86,0-36.09-9.63-34.06-21.33l22.53-129.46c1.61-9.26,17.6-16.65,35.74-16.65H647.15c18.14,0,34.13,7.39,35.74,16.65L705.42,847C707.45,858.67,692.22,868.3,671.36,868.3Z"/><line class="cls-3" x1="342.6" y1="350.76" x2="458.09" y2="350.76"/><line class="cls-3" x1="342.6" y1="425.75" x2="458.09" y2="425.75"/><line class="cls-3" x1="342.6" y1="463.25" x2="422.09" y2="463.25"/><line class="cls-3" x1="342.6" y1="388.26" x2="602.71" y2="388.26"/><line class="cls-3" x1="459.68" y1="463.25" x2="485.62" y2="463.25"/><line class="cls-3" x1="488.6" y1="463.25" x2="500.09" y2="463.25"/><line class="cls-3" x1="488.6" y1="350.76" x2="551.09" y2="350.76"/><rect class="cls-1" x="226.62" y="221.85" width="523.95" height="437.89" rx="33.79" ry="33.79"/><path class="cls-4" d="M732.43,254.81A14.81,14.81,0,0,1,719.24,247l-8.43-15.53A7,7,0,0,0,708,228.6l-15.53-8.43a15,15,0,0,1,0-26.39L708,185.35a7,7,0,0,0,2.82-2.82L719.24,167a15,15,0,0,1,26.39,0l8.42,15.53a7,7,0,0,0,2.83,2.82l15.53,8.43a15,15,0,0,1,0,26.39l-15.53,8.43a6.9,6.9,0,0,0-2.82,2.82L745.63,247A14.81,14.81,0,0,1,732.43,254.81Z"/><path class="cls-5" d="M732.43,163.14a10.88,10.88,0,0,1,9.68,5.77l8.43,15.53a11,11,0,0,0,4.43,4.43l15.53,8.43a11,11,0,0,1,0,19.35L755,225.08a11,11,0,0,0-4.43,4.43l-8.43,15.54a11,11,0,0,1-19.36,0l-8.42-15.54a11.11,11.11,0,0,0-4.43-4.43l-15.54-8.43a11,11,0,0,1,0-19.35l15.54-8.43a11.11,11.11,0,0,0,4.43-4.43l8.42-15.53a10.9,10.9,0,0,1,9.68-5.77m0-8a19,19,0,0,0-16.71,10l-8.42,15.54a3,3,0,0,1-1.22,1.21l-15.53,8.42a19,19,0,0,0,0,33.43l15.53,8.42a3,3,0,0,1,1.22,1.21l8.42,15.54a19,19,0,0,0,33.42,0l8.43-15.54a3.06,3.06,0,0,1,1.21-1.21l15.54-8.42a19,19,0,0,0,0-33.43l-15.54-8.42a3.06,3.06,0,0,1-1.21-1.21l-8.43-15.54a19,19,0,0,0-16.71-10Z"/><path class="cls-4" d="M214.62,673.68a10.24,10.24,0,0,1-9-5.36l-5.16-9.52a3.24,3.24,0,0,0-1.31-1.31l-9.52-5.16a10.24,10.24,0,0,1,0-18l9.52-5.16a3.37,3.37,0,0,0,1.31-1.31l5.16-9.52a10.24,10.24,0,0,1,18,0l5.16,9.52a3.37,3.37,0,0,0,1.31,1.31l9.52,5.16a10.24,10.24,0,0,1,0,18l-9.52,5.16a3.24,3.24,0,0,0-1.31,1.31l-5.16,9.52A10.24,10.24,0,0,1,214.62,673.68Z"/><path class="cls-5" d="M214.62,616.47a6.67,6.67,0,0,1,5.93,3.53l5.17,9.52a6.67,6.67,0,0,0,2.71,2.71l9.52,5.16a6.75,6.75,0,0,1,0,11.86l-9.52,5.17a6.67,6.67,0,0,0-2.71,2.71l-5.17,9.52a6.75,6.75,0,0,1-11.86,0l-5.16-9.52a6.67,6.67,0,0,0-2.71-2.71l-9.52-5.17a6.75,6.75,0,0,1,0-11.86l9.52-5.16a6.67,6.67,0,0,0,2.71-2.71l5.16-9.52a6.69,6.69,0,0,1,5.93-3.53m0-7a13.75,13.75,0,0,0-12.08,7.19l-5.12,9.45L188,631.24a13.75,13.75,0,0,0,0,24.17l9.46,5.12,5.12,9.45a13.74,13.74,0,0,0,24.17,0l5.12-9.45,9.45-5.12a13.74,13.74,0,0,0,0-24.17l-9.45-5.13-5.12-9.45a13.76,13.76,0,0,0-12.09-7.19Z"/></g></svg>