<svg xmlns="http://www.w3.org/2000/svg" viewBox="0 0 1024 1024"><defs><style>.cls-1,.cls-3,.cls-5{fill:none;}.cls-1,.cls-4,.cls-5{stroke:orange;}.cls-1,.cls-5{stroke-miterlimit:10;}.cls-1{stroke-width:26.96px;}.cls-2{fill:orange;}.cls-3{stroke:#fff;stroke-width:62.43px;}.cls-3,.cls-4,.cls-5{stroke-linecap:round;}.cls-3,.cls-4{stroke-linejoin:round;}.cls-4{fill:#fff;stroke-width:26.83px;}.cls-5{stroke-width:18.6px;}</style></defs><title>Design</title><g id="Design_Pencil" data-name="Design Pencil"><rect class="cls-1" x="112.51" y="379.3" width="798.99" height="306.36" rx="21" ry="21" transform="translate(526.48 -206.08) rotate(45)"/><rect class="cls-2" x="360.73" y="194.14" width="19.2" height="96.4" transform="translate(279.83 -190.88) rotate(45)"/><rect class="cls-2" x="431.64" y="265.05" width="19.2" height="96.4" transform="translate(350.74 -220.25) rotate(45)"/><rect class="cls-2" x="380.19" y="224.96" width="27.78" height="130.51" transform="translate(320.64 -193.66) rotate(45)"/><rect class="cls-2" x="458.64" y="292.06" width="19.2" height="96.4" transform="translate(377.74 -231.44) rotate(45)"/><rect class="cls-2" x="529.55" y="362.97" width="19.2" height="96.4" transform="translate(448.65 -260.81) rotate(45)"/><rect class="cls-2" x="478.11" y="322.88" width="27.78" height="130.51" transform="translate(418.55 -234.21) rotate(45)"/><rect class="cls-2" x="555.69" y="389.11" width="19.2" height="96.4" transform="translate(474.79 -271.64) rotate(45)"/><rect class="cls-2" x="626.6" y="460.02" width="19.2" height="96.4" transform="translate(545.7 -301.01) rotate(45)"/><rect class="cls-2" x="575.16" y="419.93" width="27.78" height="130.51" transform="translate(515.6 -274.41) rotate(45)"/><rect class="cls-2" x="651.87" y="485.29" width="19.2" height="96.4" transform="translate(570.98 -311.48) rotate(45)"/><rect class="cls-2" x="722.78" y="556.2" width="19.2" height="96.4" transform="translate(641.89 -340.85) rotate(45)"/><rect class="cls-2" x="671.34" y="516.11" width="27.78" height="130.51" transform="translate(611.79 -314.25) rotate(45)"/><rect class="cls-2" x="748.06" y="581.47" width="19.2" height="96.4" transform="translate(667.16 -351.32) rotate(45)"/><rect class="cls-2" x="767.53" y="612.29" width="27.78" height="130.51" transform="translate(707.97 -354.09) rotate(45)"/><path class="cls-3" d="M787.81,431.69,347.32,872.19a45.19,45.19,0,0,1-63.92,0L179.87,768.67a45.21,45.21,0,0,1,0-63.92l440.49-440.5,252.16-84.72Z"/><path class="cls-4" d="M787.81,431.69,347.32,872.19a45.19,45.19,0,0,1-63.92,0L179.87,768.67a45.21,45.21,0,0,1,0-63.92l440.49-440.5,252.16-84.72Z"/><line class="cls-4" x1="408.74" y1="810.77" x2="241.3" y2="643.32"/><line class="cls-4" x1="620.37" y1="264.25" x2="787.81" y2="431.69"/><path class="cls-4" d="M790.85,207l53.7,53.7Z"/><line class="cls-5" x1="487.03" y1="587.2" x2="643.55" y2="430.68"/><line class="cls-5" x1="468.31" y1="677.48" x2="557.23" y2="588.56"/><line class="cls-5" x1="615.61" y1="533.49" x2="589.05" y2="560.06"/><line class="cls-5" x1="239.25" y1="700.86" x2="217.14" y2="722.97"/><path class="cls-2" d="M537.73,151.93l8.43,15.53a11,11,0,0,0,4.43,4.43l15.54,8.43a11,11,0,0,1,0,19.36l-15.54,8.42a11.11,11.11,0,0,0-4.43,4.43l-8.43,15.54a11,11,0,0,1-19.35,0L510,212.53a11.11,11.11,0,0,0-4.43-4.43L490,199.68a11,11,0,0,1,0-19.36l15.53-8.43a11,11,0,0,0,4.43-4.43l8.43-15.53A11,11,0,0,1,537.73,151.93Z"/><path class="cls-2" d="M622.12,113.29l5.66,10.44a7.43,7.43,0,0,0,3,3l10.44,5.66a7.4,7.4,0,0,1,0,13L630.76,151a7.37,7.37,0,0,0-3,3l-5.66,10.43a7.4,7.4,0,0,1-13,0L603.45,154a7.43,7.43,0,0,0-3-3L590,145.38a7.4,7.4,0,0,1,0-13l10.44-5.66a7.5,7.5,0,0,0,3-3l5.66-10.44A7.4,7.4,0,0,1,622.12,113.29Z"/></g></svg>