<svg id="Layer_1" data-name="Layer 1" xmlns="http://www.w3.org/2000/svg" xmlns:xlink="http://www.w3.org/1999/xlink" viewBox="0 0 1024 1024"><defs><style>.cls-1{fill:none;}.cls-2{clip-path:url(#clip-path);}.cls-3{clip-path:url(#clip-path-4);}.cls-24,.cls-4{font-size:670.52px;font-family:CornerStoreJF, CornerStoreJF;}.cls-4,.cls-5{fill:#ffb500;}.cls-6{clip-path:url(#clip-path-5);}.cls-7{clip-path:url(#clip-path-6);}.cls-8{clip-path:url(#clip-path-7);}.cls-9{clip-path:url(#clip-path-8);}.cls-10{clip-path:url(#clip-path-9);}.cls-11{clip-path:url(#clip-path-10);}.cls-12{clip-path:url(#clip-path-11);}.cls-13{clip-path:url(#clip-path-12);}.cls-14{clip-path:url(#clip-path-13);}.cls-15{clip-path:url(#clip-path-14);}.cls-16{clip-path:url(#clip-path-15);}.cls-17{clip-path:url(#clip-path-16);}.cls-18{clip-path:url(#clip-path-17);}.cls-19{clip-path:url(#clip-path-18);}.cls-20{clip-path:url(#clip-path-19);}.cls-21{clip-path:url(#clip-path-20);}.cls-22{clip-path:url(#clip-path-21);}.cls-23{clip-path:url(#clip-path-22);}.cls-25{fill:#f1f2f2;}</style><clipPath id="clip-path"><rect class="cls-1" x="98.74" y="39.61" width="826.52" height="944.77"/></clipPath><clipPath id="clip-path-4"><rect class="cls-1" x="135.41" y="94.62" width="789.85" height="889.77"/></clipPath><clipPath id="clip-path-5"><rect class="cls-1" x="164.22" y="556.9" width="109.29" height="119.35"/></clipPath><clipPath id="clip-path-6"><rect class="cls-1" x="162.18" y="553.84" width="109.29" height="119.35"/></clipPath><clipPath id="clip-path-7"><rect class="cls-1" x="160.14" y="550.78" width="109.29" height="119.35"/></clipPath><clipPath id="clip-path-8"><rect class="cls-1" x="158.11" y="547.73" width="109.29" height="119.35"/></clipPath><clipPath id="clip-path-9"><rect class="cls-1" x="156.07" y="544.67" width="109.29" height="119.35"/></clipPath><clipPath id="clip-path-10"><rect class="cls-1" x="154.03" y="541.62" width="109.29" height="119.35"/></clipPath><clipPath id="clip-path-11"><rect class="cls-1" x="152" y="538.56" width="109.29" height="119.35"/></clipPath><clipPath id="clip-path-12"><rect class="cls-1" x="149.96" y="535.51" width="109.29" height="119.35"/></clipPath><clipPath id="clip-path-13"><rect class="cls-1" x="147.92" y="532.45" width="109.29" height="119.35"/></clipPath><clipPath id="clip-path-14"><rect class="cls-1" x="145.88" y="529.39" width="109.29" height="119.35"/></clipPath><clipPath id="clip-path-15"><rect class="cls-1" x="143.85" y="526.34" width="109.29" height="119.35"/></clipPath><clipPath id="clip-path-16"><rect class="cls-1" x="141.81" y="523.28" width="109.29" height="119.35"/></clipPath><clipPath id="clip-path-17"><rect class="cls-1" x="139.77" y="520.23" width="109.29" height="119.35"/></clipPath><clipPath id="clip-path-18"><rect class="cls-1" x="137.74" y="517.17" width="109.29" height="119.35"/></clipPath><clipPath id="clip-path-19"><rect class="cls-1" x="135.7" y="514.11" width="109.29" height="119.35"/></clipPath><clipPath id="clip-path-20"><rect class="cls-1" x="133.66" y="511.06" width="109.29" height="119.35"/></clipPath><clipPath id="clip-path-21"><rect class="cls-1" x="131.62" y="508.01" width="109.29" height="119.35"/></clipPath><clipPath id="clip-path-22"><rect class="cls-1" x="98.74" y="39.61" width="789.85" height="889.77"/></clipPath></defs><title>logo</title><g id="New_Logo" data-name="New Logo"><g class="cls-2"><g class="cls-2"><g class="cls-2"><g class="cls-3"><text class="cls-4" transform="translate(135.41 664.55)">.</text><path class="cls-5" d="M480.72,443.28c-28.83,61-199.81,401.63-264.84,401.63-16.77,0-79.79-17.43-79.79-39.56,0-3.35,2.68-8.05,6.7-8.05,3.36,0,14.08,8.05,22.13,8.05,46.93,0,136.78-193.77,164.94-246.74,23.47-42.91,114.66-234,135.44-234,11.4,0,54.31,7.37,54.31,22.79C519.61,362.15,487.43,428.53,480.72,443.28Zm356,185.06c-42.92,0-81.13-37.55-122-73.75-23.47,61-64.37,115.32-153.55,115.32-61,0-101.24-43.58-101.24-99.23,0-65,60.34-114,128.73-114h9.39c15.42-15.42,36.21-41.57,65-81.8,42.24-57.66,85.15-87.16,115.32-87.16,16.77,0,28.83,6,28.83,14.75,0,22.13-13.41,30.17-28.83,40.23-14.08,8.72-29.5,19.44-37.54,42.91-6.71,19.44,0,81.8-10.06,114.66,51,25.47,100.57,52.29,154.21,52.29,26.15,0,32.19-16.09,34.87-16.09s4,.67,4,4C923.92,549.89,884.36,628.34,836.76,628.34ZM532.35,291.75c-29.5,0-61.68-22.8-61.68-55,0-24.14,37.54-61,62.35-61,29.5,0,61.69,22.79,61.69,55C594.71,254.2,556.49,291.75,532.35,291.75ZM588,489.55c-42.24,0-62.35,25.48-62.35,49.61,0,22.13,16.76,42.92,49.61,42.92,41.57,0,59.68-36.88,71.75-77.11C628.23,495.58,608.79,489.55,588,489.55Zm82.47-75.1c-6,8.72-20.78,30.17-35.53,47.61l22.12,6c6.71-22.8,11.4-40.9,15.42-52.3Z"/></g><g class="cls-6"><path class="cls-5" d="M207.8,676.24c-26.82,0-43.58-21.46-43.58-47.61,0-34.19,29.5-71.74,65.71-71.74,26.82,0,43.58,22.13,43.58,47.61,0,34.2-29.5,71.74-65.71,71.74"/></g><path class="cls-5" d="M530.31,288.7c-29.51,0-61.69-22.8-61.69-55,0-24.13,37.55-61,62.35-61,29.51,0,61.69,22.8,61.69,55,0,23.47-38.22,61-62.35,61M478.68,440.23c-28.83,61-199.81,401.62-264.85,401.62-16.76,0-79.79-17.43-79.79-39.56,0-3.35,2.69-8,6.71-8,3.35,0,14.08,8,22.12,8,46.94,0,136.47-193.93,165-246.74,23.21-43,114.65-234,135.43-234,11.4,0,54.32,7.38,54.32,22.8,0,14.75-32.19,81.13-38.89,95.88"/><path class="cls-5" d="M668.43,411.39c-6,8.72-20.79,30.18-35.54,47.61L655,465c6.7-22.8,11.4-40.91,15.42-52.3Zm166.28,213.9c-42.91,0-81.13-37.56-122-73.76-23.47,61-64.37,115.32-153.54,115.32-61,0-101.25-43.58-101.25-99.23,0-65,60.35-114,128.74-114H596c15.42-15.42,36.21-41.57,65-81.8,42.25-57.66,85.16-87.17,115.33-87.17,16.76,0,28.83,6,28.83,14.75,0,22.13-13.29,30.36-28.83,40.23-14,8.88-29.5,19.45-37.55,42.92-6.71,19.44,0,81.79-10.06,114.65,51,25.48,100.58,52.3,154.22,52.3,26.15,0,32.18-16.1,34.86-16.1s4,.68,4,4c0,9.39-39.56,87.84-87.17,87.84M586,486.49c-42.25,0-62.36,25.48-62.36,49.62,0,22.13,16.76,42.91,49.62,42.91,41.57,0,59.67-36.88,71.74-77.11-18.77-9.39-38.22-15.42-59-15.42"/><g class="cls-7"><path class="cls-5" d="M205.76,673.19c-26.82,0-43.58-21.46-43.58-47.61,0-34.19,29.5-71.74,65.71-71.74,26.82,0,43.58,22.12,43.58,47.6,0,34.2-29.5,71.75-65.71,71.75"/></g><path class="cls-5" d="M528.27,285.64c-29.5,0-61.69-22.8-61.69-55,0-24.14,37.55-61,62.36-61,29.5,0,61.68,22.8,61.68,55,0,23.46-38.22,61-62.35,61M476.64,437.17c-28.83,61-199.81,401.63-264.85,401.63C195,838.8,132,821.37,132,799.24c0-3.35,2.68-8,6.7-8,3.35,0,14.08,8,22.12,8,46.94,0,136.48-193.94,164.95-246.74,23.21-43.05,114.65-234,135.44-234,11.4,0,54.31,7.37,54.31,22.79,0,14.75-32.19,81.13-38.89,95.88"/><path class="cls-5" d="M666.39,408.34c-6,8.72-20.79,30.17-35.54,47.6L653,462c6.7-22.8,11.4-40.9,15.42-52.3ZM832.67,622.23c-42.91,0-81.13-37.55-122-73.76-23.47,61-64.37,115.33-153.54,115.33-61,0-101.25-43.58-101.25-99.23,0-65,60.35-114,128.74-114H594c15.43-15.42,36.22-41.57,65-81.8,42.25-57.66,85.16-87.16,115.33-87.16,16.76,0,28.83,6,28.83,14.75,0,22.12-13.29,30.35-28.83,40.23-14,8.88-29.5,19.44-37.55,42.91-6.7,19.44,0,81.8-10.06,114.65,51,25.48,100.58,52.3,154.22,52.3,26.15,0,32.18-16.09,34.87-16.09s4,.67,4,4c0,9.38-39.56,87.83-87.17,87.83M583.92,483.44c-42.24,0-62.36,25.48-62.36,49.61,0,22.13,16.76,42.91,49.62,42.91,41.57,0,59.67-36.87,71.74-77.1-18.77-9.39-38.21-15.42-59-15.42"/><g class="cls-8"><path class="cls-5" d="M203.73,670.13c-26.82,0-43.58-21.46-43.58-47.61,0-34.19,29.5-71.74,65.7-71.74,26.82,0,43.58,22.13,43.58,47.6,0,34.2-29.5,71.75-65.7,71.75"/></g><path class="cls-5" d="M526.23,282.58c-29.5,0-61.68-22.79-61.68-55,0-24.13,37.54-61,62.35-61,29.5,0,61.68,22.79,61.68,55,0,23.47-38.21,61-62.35,61M474.6,434.12c-28.83,61-199.8,401.62-264.85,401.62C193,835.74,130,818.31,130,796.18c0-3.35,2.68-8,6.7-8,3.36,0,14.09,8,22.13,8,46.93,0,136.47-193.93,164.94-246.74,23.22-43.05,114.66-234,135.44-234,11.4,0,54.31,7.38,54.31,22.79,0,14.76-32.18,81.13-38.89,95.89"/><path class="cls-5" d="M664.35,405.28c-6,8.72-20.78,30.18-35.53,47.61l22.12,6c6.7-22.8,11.4-40.91,15.43-52.31ZM830.64,619.17c-42.92,0-81.13-37.55-122-73.75-23.47,61-64.37,115.32-153.55,115.32-61,0-101.24-43.58-101.24-99.23,0-65,60.34-114,128.73-114h9.39c15.42-15.43,36.21-41.58,65-81.8,42.24-57.67,85.15-87.17,115.33-87.17,16.75,0,28.82,6,28.82,14.75,0,22.13-13.29,30.36-28.82,40.23-14,8.88-29.51,19.45-37.55,42.91-6.71,19.45,0,81.8-10.06,114.66,51,25.48,100.57,52.29,154.21,52.29,26.15,0,32.18-16.09,34.87-16.09s4,.68,4,4c0,9.39-39.56,87.83-87.16,87.83M581.88,480.38c-42.24,0-62.36,25.48-62.36,49.62,0,22.13,16.77,42.91,49.62,42.91,41.57,0,59.68-36.88,71.75-77.11-18.78-9.39-38.22-15.42-59-15.42"/><g class="cls-9"><path class="cls-5" d="M201.69,667.08c-26.82,0-43.58-21.46-43.58-47.61,0-34.19,29.5-71.74,65.71-71.74,26.81,0,43.58,22.12,43.58,47.6,0,34.2-29.5,71.75-65.71,71.75"/></g><path class="cls-5" d="M524.19,279.53c-29.5,0-61.68-22.8-61.68-55,0-24.14,37.55-61,62.35-61,29.5,0,61.69,22.8,61.69,55,0,23.46-38.22,61-62.36,61M472.56,431.06c-28.83,61-199.8,401.63-264.84,401.63-16.77,0-79.79-17.44-79.79-39.56,0-3.35,2.68-8,6.7-8,3.36,0,14.09,8,22.13,8,46.93,0,136.47-193.94,165-246.75,23.21-43,114.65-234,135.43-234,11.4,0,54.31,7.37,54.31,22.79,0,14.75-32.18,81.13-38.89,95.88"/><path class="cls-5" d="M662.32,402.23c-6,8.72-20.79,30.17-35.54,47.6l22.13,6c6.7-22.8,11.39-40.9,15.42-52.3ZM828.6,616.12c-42.91,0-81.13-37.55-122-73.76C683.1,603.38,642.2,657.69,553,657.69c-61,0-101.24-43.58-101.24-99.24,0-65,60.35-114,128.74-114h9.38c15.42-15.42,36.21-41.57,65-81.8,42.24-57.66,85.15-87.16,115.33-87.16,16.76,0,28.83,6,28.83,14.75,0,22.12-13.3,30.35-28.83,40.23-14,8.88-29.51,19.44-37.55,42.91-6.71,19.44,0,81.8-10.06,114.65,51,25.48,100.57,52.3,154.21,52.3,26.15,0,32.18-16.09,34.87-16.09s4,.67,4,4c0,9.39-39.56,87.84-87.16,87.84M579.84,477.32c-42.24,0-62.35,25.48-62.35,49.62,0,22.13,16.76,42.91,49.61,42.91,41.57,0,59.68-36.88,71.75-77.1-18.78-9.39-38.22-15.43-59-15.43"/><g class="cls-10"><path class="cls-5" d="M199.65,664c-26.82,0-43.58-21.46-43.58-47.61,0-34.19,29.5-71.74,65.71-71.74,26.82,0,43.58,22.13,43.58,47.6,0,34.2-29.5,71.75-65.71,71.75"/></g><path class="cls-5" d="M522.16,276.47c-29.51,0-61.69-22.79-61.69-55,0-24.13,37.55-61,62.35-61,29.51,0,61.69,22.79,61.69,55,0,23.46-38.22,61-62.35,61M470.53,428C441.7,489,270.72,829.63,205.68,829.63c-16.76,0-79.79-17.43-79.79-39.56,0-3.35,2.69-8.05,6.71-8.05,3.35,0,14.08,8.05,22.12,8.05,46.94,0,136.47-193.94,165-246.74,23.21-43.05,114.65-234,135.44-234,11.39,0,54.31,7.38,54.31,22.79,0,14.76-32.19,81.13-38.89,95.89"/><path class="cls-5" d="M660.28,399.17c-6,8.72-20.79,30.18-35.54,47.61l22.13,6c6.7-22.8,11.4-40.91,15.42-52.31ZM826.56,613.06c-42.91,0-81.13-37.55-122-73.75-23.47,61-64.37,115.32-153.54,115.32-61,0-101.25-43.58-101.25-99.23,0-65,60.35-114,128.74-114h9.38c15.42-15.43,36.21-41.58,65-81.8,42.25-57.67,85.16-87.17,115.33-87.17,16.76,0,28.83,6,28.83,14.75,0,22.13-13.29,30.36-28.83,40.23-14,8.88-29.5,19.45-37.55,42.91-6.7,19.45,0,81.8-10.06,114.66,51,25.48,100.58,52.29,154.22,52.29,26.15,0,32.18-16.09,34.86-16.09s4,.68,4,4c0,9.39-39.56,87.83-87.17,87.83M577.81,474.27c-42.25,0-62.36,25.48-62.36,49.62,0,22.12,16.76,42.91,49.62,42.91,41.57,0,59.67-36.88,71.74-77.11-18.77-9.39-38.22-15.42-59-15.42"/><g class="cls-11"><path class="cls-5" d="M197.61,661C170.8,661,154,639.51,154,613.36c0-34.2,29.51-71.74,65.71-71.74,26.82,0,43.58,22.12,43.58,47.6,0,34.2-29.5,71.75-65.71,71.75"/></g><path class="cls-5" d="M520.12,273.42c-29.5,0-61.69-22.8-61.69-55,0-24.14,37.55-61,62.36-61,29.5,0,61.68,22.8,61.68,55,0,23.47-38.22,61-62.35,61M468.49,425c-28.83,61-199.81,401.63-264.85,401.63-16.76,0-79.78-17.44-79.78-39.56,0-3.35,2.68-8,6.7-8,3.35,0,14.08,8,22.13,8,46.93,0,136.47-193.94,164.94-246.75,23.22-43,114.65-234,135.44-234,11.4,0,54.31,7.38,54.31,22.8,0,14.75-32.19,81.13-38.89,95.88"/><path class="cls-5" d="M658.24,396.12c-6,8.72-20.79,30.17-35.54,47.6l22.13,6c6.7-22.8,11.4-40.9,15.42-52.3ZM824.52,610c-42.91,0-81.13-37.55-122-73.76C679,597.27,638.13,651.58,549,651.58c-61,0-101.25-43.58-101.25-99.24,0-65,60.35-114,128.74-114h9.38c15.43-15.42,36.22-41.57,65-81.8C693.11,298.9,736,269.4,766.19,269.4c16.76,0,28.83,6,28.83,14.75,0,22.12-13.29,30.35-28.83,40.23-14,8.88-29.5,19.44-37.55,42.91-6.7,19.44,0,81.8-10.06,114.65,51,25.48,100.58,52.3,154.22,52.3,26.15,0,32.18-16.09,34.87-16.09s4,.67,4,4c0,9.39-39.56,87.84-87.17,87.84M575.77,471.21c-42.24,0-62.36,25.48-62.36,49.62,0,22.13,16.76,42.91,49.62,42.91,41.57,0,59.67-36.88,71.74-77.1-18.77-9.39-38.21-15.43-59-15.43"/><g class="cls-12"><path class="cls-5" d="M195.58,657.91c-26.82,0-43.58-21.46-43.58-47.61,0-34.19,29.5-71.74,65.7-71.74,26.82,0,43.58,22.13,43.58,47.6,0,34.2-29.49,71.75-65.7,71.75"/></g><path class="cls-5" d="M518.08,270.36c-29.5,0-61.68-22.8-61.68-55,0-24.14,37.54-61,62.35-61,29.5,0,61.68,22.79,61.68,55,0,23.46-38.21,61-62.35,61M466.45,421.89c-28.83,61-199.8,401.63-264.84,401.63-16.77,0-79.79-17.43-79.79-39.56,0-3.35,2.68-8.05,6.7-8.05,3.36,0,14.09,8.05,22.13,8.05,46.93,0,136.47-193.94,165-246.74,23.21-43.05,114.65-234,135.43-234,11.4,0,54.31,7.37,54.31,22.79,0,14.75-32.18,81.13-38.89,95.88"/><path class="cls-5" d="M656.2,393.06c-6,8.72-20.78,30.18-35.53,47.61l22.12,6c6.71-22.79,11.4-40.9,15.43-52.3ZM822.49,607c-42.92,0-81.13-37.55-122-73.76-23.47,61-64.37,115.33-153.55,115.33-61,0-101.24-43.58-101.24-99.23,0-65,60.34-114,128.73-114h9.39c15.42-15.43,36.21-41.58,65-81.81,42.24-57.66,85.15-87.16,115.33-87.16,16.76,0,28.82,6,28.82,14.75,0,22.13-13.29,30.36-28.82,40.23-14,8.88-29.51,19.44-37.55,42.91-6.71,19.44,0,81.8-10.06,114.66,51,25.48,100.57,52.29,154.21,52.29,26.15,0,32.18-16.09,34.87-16.09s4,.67,4,4c0,9.38-39.56,87.83-87.16,87.83M573.73,468.16c-42.24,0-62.36,25.48-62.36,49.62,0,22.12,16.77,42.91,49.62,42.91,41.57,0,59.68-36.88,71.75-77.11-18.78-9.39-38.22-15.42-59-15.42"/><g class="cls-13"><path class="cls-5" d="M193.54,654.85c-26.82,0-43.58-21.45-43.58-47.6,0-34.2,29.5-71.75,65.71-71.75,26.81,0,43.58,22.13,43.58,47.61,0,34.2-29.5,71.74-65.71,71.74"/></g><path class="cls-5" d="M516,267.31c-29.5,0-61.68-22.8-61.68-55,0-24.13,37.55-61,62.35-61,29.5,0,61.69,22.8,61.69,55,0,23.47-38.22,61-62.36,61M464.41,418.84c-28.82,61-199.8,401.63-264.84,401.63-16.77,0-79.79-17.44-79.79-39.56,0-3.35,2.68-8,6.7-8,3.36,0,14.09,8,22.13,8,46.93,0,136.47-193.94,165-246.75,23.21-43,114.65-234,135.43-234,11.4,0,54.31,7.38,54.31,22.8,0,14.75-32.18,81.13-38.89,95.88"/><path class="cls-5" d="M654.17,390c-6,8.71-20.79,30.17-35.54,47.6l22.13,6c6.7-22.8,11.39-40.9,15.42-52.3ZM820.45,603.9c-42.91,0-81.13-37.55-122-73.76-23.47,61-64.37,115.33-153.55,115.33-61,0-101.24-43.58-101.24-99.24,0-65,60.35-114,128.74-114h9.38c15.42-15.42,36.21-41.57,65-81.8,42.24-57.66,85.15-87.16,115.33-87.16,16.76,0,28.83,6,28.83,14.75,0,22.12-13.3,30.35-28.83,40.23-14,8.88-29.51,19.44-37.55,42.91-6.71,19.44,0,81.8-10.06,114.65,51,25.48,100.58,52.3,154.21,52.3,26.15,0,32.19-16.09,34.87-16.09s4,.67,4,4c0,9.39-39.56,87.84-87.16,87.84M571.7,465.1c-42.25,0-62.36,25.48-62.36,49.62,0,22.13,16.76,42.91,49.62,42.91,41.56,0,59.67-36.88,71.74-77.1-18.78-9.39-38.22-15.43-59-15.43"/><g class="cls-14"><path class="cls-5" d="M191.5,651.8c-26.82,0-43.58-21.46-43.58-47.61,0-34.19,29.5-71.74,65.71-71.74,26.82,0,43.58,22.13,43.58,47.6,0,34.2-29.5,71.75-65.71,71.75"/></g><path class="cls-5" d="M514,264.25c-29.5,0-61.69-22.8-61.69-55,0-24.14,37.55-61,62.36-61,29.5,0,61.68,22.8,61.68,55,0,23.46-38.22,61-62.35,61M462.38,415.78c-28.83,61-199.81,401.63-264.85,401.63-16.76,0-79.78-17.43-79.78-39.56,0-3.35,2.68-8.05,6.7-8.05,3.35,0,14.08,8.05,22.12,8.05,46.94,0,136.48-193.94,165-246.74,23.21-43.05,114.65-234,135.44-234,11.39,0,54.31,7.37,54.31,22.79,0,14.75-32.19,81.13-38.89,95.88"/><path class="cls-5" d="M652.13,387c-6,8.72-20.79,30.17-35.54,47.6l22.13,6c6.7-22.79,11.4-40.9,15.42-52.3ZM818.41,600.84c-42.91,0-81.13-37.55-122-73.76-23.47,61-64.37,115.33-153.54,115.33-61,0-101.25-43.58-101.25-99.23,0-65,60.35-114,128.74-114h9.38c15.43-15.42,36.22-41.57,65-81.8,42.25-57.66,85.16-87.16,115.33-87.16,16.76,0,28.83,6,28.83,14.75,0,22.12-13.29,30.35-28.83,40.23-14,8.88-29.5,19.44-37.55,42.91-6.7,19.44,0,81.8-10.06,114.65,51,25.48,100.58,52.3,154.22,52.3,26.15,0,32.18-16.09,34.86-16.09s4,.67,4,4c0,9.38-39.56,87.83-87.17,87.83M569.66,462.05c-42.24,0-62.36,25.48-62.36,49.62,0,22.12,16.76,42.91,49.62,42.91,41.57,0,59.67-36.88,71.74-77.11-18.77-9.39-38.21-15.42-59-15.42"/><g class="cls-15"><path class="cls-5" d="M189.47,648.74c-26.82,0-43.58-21.46-43.58-47.61,0-34.19,29.5-71.74,65.7-71.74,26.82,0,43.58,22.13,43.58,47.61,0,34.2-29.5,71.74-65.7,71.74"/></g><path class="cls-5" d="M512,261.2c-29.5,0-61.68-22.8-61.68-55,0-24.13,37.54-61,62.35-61,29.5,0,61.68,22.8,61.68,55,0,23.47-38.21,61-62.35,61M460.34,412.73c-28.83,61-199.8,401.62-264.85,401.62-16.76,0-79.78-17.43-79.78-39.56,0-3.35,2.68-8,6.7-8,3.36,0,14.09,8,22.13,8,46.93,0,136.47-193.93,164.94-246.74,23.21-43,114.66-234,135.44-234,11.4,0,54.31,7.38,54.31,22.8,0,14.75-32.18,81.13-38.89,95.88"/><path class="cls-5" d="M650.09,383.89c-6,8.72-20.78,30.18-35.53,47.61l22.12,6c6.7-22.8,11.4-40.91,15.43-52.3Zm166.29,213.9c-42.92,0-81.13-37.56-122-73.76-23.46,61-64.36,115.32-153.54,115.32-61,0-101.24-43.58-101.24-99.23,0-65,60.34-114,128.73-114h9.39c15.42-15.42,36.21-41.57,65-81.8C685,286.68,727.87,257.17,758,257.17c16.76,0,28.83,6,28.83,14.75,0,22.13-13.29,30.36-28.83,40.23-14,8.88-29.5,19.45-37.54,42.92-6.71,19.44,0,81.8-10.06,114.65C761.4,495.2,811,522,864.65,522c26.15,0,32.18-16.1,34.87-16.1s4,.68,4,4c0,9.39-39.56,87.84-87.16,87.84M567.62,459c-42.24,0-62.36,25.48-62.36,49.62,0,22.13,16.77,42.91,49.62,42.91,41.57,0,59.68-36.88,71.75-77.11C607.85,465,588.41,459,567.62,459"/><g class="cls-16"><path class="cls-5" d="M187.43,645.69c-26.82,0-43.58-21.46-43.58-47.61,0-34.19,29.5-71.74,65.7-71.74,26.82,0,43.59,22.12,43.59,47.6,0,34.2-29.5,71.75-65.71,71.75"/></g><path class="cls-5" d="M509.93,258.14c-29.5,0-61.68-22.8-61.68-55,0-24.14,37.54-61,62.35-61,29.5,0,61.69,22.8,61.69,55,0,23.46-38.22,61-62.36,61M458.3,409.67c-28.83,61-199.8,401.63-264.84,401.63-16.77,0-79.79-17.43-79.79-39.56,0-3.35,2.68-8,6.7-8,3.36,0,14.09,8,22.13,8,46.93,0,136.47-193.94,165-246.74C330.66,482,422.1,291,442.88,291c11.4,0,54.31,7.37,54.31,22.79,0,14.75-32.18,81.13-38.89,95.88"/><path class="cls-5" d="M648.06,380.84c-6,8.72-20.79,30.17-35.54,47.61l22.13,6c6.7-22.8,11.39-40.9,15.42-52.3ZM814.34,594.73c-42.91,0-81.13-37.55-122-73.76C668.84,582,627.94,636.3,538.76,636.3c-61,0-101.24-43.58-101.24-99.23,0-65,60.35-114,128.74-114h9.38c15.42-15.42,36.21-41.57,65-81.8,42.24-57.66,85.15-87.16,115.33-87.16,16.76,0,28.83,6,28.83,14.75,0,22.12-13.3,30.35-28.83,40.23C742,318,726.5,328.54,718.46,352c-6.71,19.44,0,81.8-10.06,114.65C759.36,492.14,809,519,862.61,519c26.15,0,32.18-16.09,34.87-16.09s4,.67,4,4c0,9.38-39.56,87.83-87.16,87.83M565.58,455.94c-42.24,0-62.35,25.48-62.35,49.61,0,22.13,16.76,42.91,49.61,42.91,41.57,0,59.68-36.87,71.75-77.1-18.78-9.39-38.22-15.42-59-15.42"/><g class="cls-17"><path class="cls-5" d="M185.39,642.63c-26.82,0-43.58-21.46-43.58-47.61,0-34.19,29.5-71.74,65.71-71.74,26.82,0,43.58,22.13,43.58,47.6,0,34.2-29.5,71.75-65.71,71.75"/></g><path class="cls-5" d="M507.9,255.08c-29.51,0-61.69-22.79-61.69-55,0-24.13,37.55-61,62.35-61,29.51,0,61.69,22.79,61.69,55,0,23.46-38.22,61-62.35,61M456.27,406.62c-28.83,61-199.81,401.62-264.85,401.62-16.76,0-79.79-17.43-79.79-39.56,0-3.35,2.69-8,6.71-8,3.35,0,14.08,8,22.12,8,46.94,0,136.47-193.93,165-246.74,23.21-43.05,114.65-234,135.43-234,11.4,0,54.32,7.38,54.32,22.79,0,14.76-32.19,81.13-38.89,95.89"/><path class="cls-5" d="M646,377.78c-6,8.72-20.79,30.18-35.54,47.61l22.13,6c6.7-22.8,11.4-40.91,15.42-52.31ZM812.3,591.67c-42.91,0-81.13-37.55-122-73.75-23.47,61-64.37,115.32-153.54,115.32-61,0-101.25-43.58-101.25-99.23,0-65,60.35-114,128.74-114h9.38c15.42-15.43,36.21-41.58,65-81.8,42.25-57.67,85.16-87.17,115.33-87.17,16.76,0,28.83,6,28.83,14.75,0,22.13-13.29,30.36-28.83,40.23-14,8.88-29.5,19.45-37.55,42.91-6.7,19.45,0,81.81-10.06,114.66,51,25.48,100.58,52.29,154.22,52.29,26.15,0,32.18-16.09,34.86-16.09s4,.68,4,4c0,9.39-39.56,87.83-87.17,87.83M563.55,452.88c-42.25,0-62.36,25.48-62.36,49.62,0,22.13,16.76,42.91,49.62,42.91,41.57,0,59.67-36.88,71.74-77.11-18.77-9.39-38.22-15.42-59-15.42"/><g class="cls-18"><path class="cls-5" d="M183.35,639.58c-26.81,0-43.58-21.46-43.58-47.61,0-34.19,29.51-71.74,65.71-71.74,26.82,0,43.58,22.12,43.58,47.6,0,34.2-29.5,71.75-65.71,71.75"/></g><path class="cls-5" d="M505.86,252c-29.5,0-61.69-22.8-61.69-55,0-24.14,37.55-61,62.36-61,29.5,0,61.68,22.8,61.68,55,0,23.46-38.22,61-62.35,61M454.23,403.56c-28.83,61-199.81,401.63-264.85,401.63-16.76,0-79.78-17.44-79.78-39.56,0-3.35,2.68-8,6.7-8,3.35,0,14.08,8,22.13,8,46.93,0,136.47-193.94,164.94-246.75,23.22-43,114.65-234,135.44-234,11.4,0,54.31,7.37,54.31,22.79,0,14.75-32.19,81.13-38.89,95.88"/><path class="cls-5" d="M644,374.73c-6,8.72-20.79,30.17-35.54,47.61l22.13,6c6.7-22.8,11.4-40.9,15.42-52.3ZM810.26,588.62c-42.91,0-81.13-37.55-122-73.76-23.47,61-64.36,115.33-153.54,115.33-61,0-101.25-43.58-101.25-99.24,0-65,60.35-114,128.74-114h9.38c15.43-15.42,36.22-41.57,65.05-81.8C678.85,277.51,721.76,248,751.93,248c16.76,0,28.83,6,28.83,14.75,0,22.12-13.29,30.35-28.83,40.23-14,8.88-29.5,19.44-37.55,42.91-6.7,19.44,0,81.8-10.06,114.65,51,25.48,100.58,52.3,154.22,52.3,26.15,0,32.18-16.09,34.87-16.09s4,.67,4,4c0,9.39-39.56,87.84-87.17,87.84M561.51,449.82c-42.24,0-62.36,25.48-62.36,49.62,0,22.13,16.76,42.91,49.62,42.91,41.57,0,59.67-36.88,71.74-77.1-18.77-9.39-38.21-15.43-59-15.43"/><g class="cls-19"><path class="cls-5" d="M181.32,636.52c-26.82,0-43.58-21.46-43.58-47.61,0-34.19,29.5-71.74,65.7-71.74,26.82,0,43.58,22.13,43.58,47.6,0,34.2-29.5,71.75-65.7,71.75"/></g><path class="cls-5" d="M503.82,249c-29.5,0-61.68-22.79-61.68-55,0-24.14,37.54-61,62.35-61,29.5,0,61.68,22.79,61.68,55,0,23.46-38.21,61-62.35,61M452.19,400.51c-28.83,61-199.8,401.62-264.84,401.62-16.77,0-79.79-17.43-79.79-39.56,0-3.35,2.68-8.05,6.7-8.05,3.36,0,14.09,8.05,22.13,8.05,46.93,0,136.47-193.94,164.94-246.74,23.22-43.05,114.66-234,135.44-234,11.4,0,54.31,7.38,54.31,22.79,0,14.76-32.18,81.13-38.89,95.89"/><path class="cls-5" d="M641.94,371.67c-6,8.72-20.78,30.18-35.53,47.61l22.12,6c6.71-22.79,11.4-40.9,15.43-52.3ZM808.23,585.56c-42.92,0-81.13-37.55-122-73.75-23.47,61-64.37,115.32-153.55,115.32-61,0-101.24-43.58-101.24-99.23,0-65,60.34-114,128.73-114h9.39c15.42-15.43,36.21-41.58,65-81.8C676.81,274.45,719.72,245,749.9,245c16.76,0,28.82,6,28.82,14.75,0,22.13-13.29,30.36-28.82,40.23-14,8.88-29.51,19.45-37.55,42.91-6.71,19.45,0,81.8-10.06,114.66,51,25.48,100.57,52.29,154.21,52.29,26.15,0,32.18-16.09,34.87-16.09s4,.68,4,4c0,9.39-39.56,87.83-87.16,87.83M559.47,446.77c-42.24,0-62.36,25.48-62.36,49.62,0,22.12,16.77,42.91,49.62,42.91,41.57,0,59.68-36.88,71.75-77.11-18.78-9.39-38.22-15.42-59-15.42"/><g class="cls-20"><path class="cls-5" d="M179.28,633.46c-26.82,0-43.58-21.45-43.58-47.6,0-34.2,29.5-71.75,65.71-71.75,26.81,0,43.58,22.13,43.58,47.61,0,34.2-29.5,71.74-65.71,71.74"/></g><path class="cls-5" d="M501.78,245.92c-29.5,0-61.68-22.8-61.68-55,0-24.14,37.55-61,62.35-61,29.5,0,61.69,22.8,61.69,55,0,23.47-38.22,61-62.36,61M450.15,397.45c-28.82,61-199.8,401.63-264.84,401.63-16.77,0-79.79-17.44-79.79-39.56,0-3.35,2.68-8,6.7-8,3.36,0,14.09,8,22.13,8,46.93,0,136.47-193.94,165-246.75,23.21-43,114.65-234,135.43-234,11.4,0,54.31,7.38,54.31,22.8,0,14.75-32.18,81.13-38.89,95.88"/><path class="cls-5" d="M639.91,368.62c-6,8.72-20.79,30.17-35.54,47.61l22.13,6c6.7-22.8,11.39-40.9,15.42-52.3ZM806.19,582.51c-42.91,0-81.13-37.55-122-73.76-23.47,61-64.37,115.33-153.55,115.33-61,0-101.24-43.58-101.24-99.24,0-65,60.35-114,128.74-114h9.38c15.42-15.42,36.21-41.57,65-81.8,42.24-57.66,85.15-87.16,115.33-87.16,16.76,0,28.83,6,28.83,14.75,0,22.12-13.3,30.35-28.83,40.23-14,8.88-29.51,19.44-37.55,42.91-6.71,19.44,0,81.8-10.06,114.65,51,25.48,100.58,52.3,154.21,52.3,26.15,0,32.19-16.09,34.87-16.09s4,.67,4,4c0,9.39-39.56,87.84-87.16,87.84M557.44,443.71c-42.25,0-62.36,25.48-62.36,49.62,0,22.13,16.76,42.91,49.62,42.91,41.56,0,59.67-36.88,71.74-77.1-18.78-9.39-38.22-15.43-59-15.43"/><g class="cls-21"><path class="cls-5" d="M177.24,630.41c-26.82,0-43.58-21.46-43.58-47.61,0-34.19,29.5-71.74,65.71-71.74,26.82,0,43.58,22.13,43.58,47.6,0,34.2-29.5,71.75-65.71,71.75"/></g><path class="cls-5" d="M499.75,242.86c-29.5,0-61.69-22.8-61.69-55,0-24.14,37.55-61,62.36-61,29.5,0,61.68,22.79,61.68,55,0,23.46-38.22,61-62.35,61M448.12,394.39C419.29,455.41,248.31,796,183.27,796c-16.76,0-79.78-17.43-79.78-39.56,0-3.35,2.68-8.05,6.7-8.05,3.35,0,14.08,8.05,22.12,8.05,46.94,0,136.48-193.94,165-246.74,23.21-43.05,114.65-234,135.44-234,11.39,0,54.31,7.37,54.31,22.79,0,14.75-32.19,81.13-38.89,95.88"/><path class="cls-5" d="M637.87,365.56c-6,8.72-20.79,30.18-35.54,47.61l22.13,6c6.7-22.79,11.4-40.9,15.42-52.3ZM804.15,579.45c-42.91,0-81.13-37.55-122-73.76C658.65,566.71,617.75,621,528.58,621c-61,0-101.25-43.58-101.25-99.23,0-65,60.35-114,128.74-114h9.38c15.43-15.42,36.22-41.57,65-81.8,42.25-57.66,85.16-87.16,115.33-87.16,16.76,0,28.83,6,28.83,14.75,0,22.12-13.29,30.36-28.83,40.23-14,8.88-29.5,19.44-37.55,42.91-6.7,19.44,0,81.8-10.06,114.66,51,25.48,100.58,52.29,154.22,52.29,26.15,0,32.18-16.09,34.86-16.09s4,.67,4,4c0,9.38-39.56,87.83-87.17,87.83M555.4,440.66c-42.24,0-62.36,25.48-62.36,49.62,0,22.12,16.76,42.91,49.62,42.91,41.57,0,59.67-36.88,71.74-77.11-18.77-9.39-38.21-15.42-59-15.42"/><g class="cls-22"><path class="cls-5" d="M175.2,627.35c-26.81,0-43.58-21.45-43.58-47.6,0-34.2,29.51-71.75,65.71-71.75,26.82,0,43.58,22.13,43.58,47.61,0,34.2-29.5,71.74-65.71,71.74"/></g><path class="cls-5" d="M497.71,239.81c-29.5,0-61.68-22.8-61.68-55,0-24.13,37.54-61,62.35-61,29.5,0,61.68,22.8,61.68,55,0,23.47-38.21,61-62.35,61M446.08,391.34C417.25,452.35,246.27,793,181.23,793c-16.76,0-79.78-17.44-79.78-39.56,0-3.35,2.68-8,6.7-8,3.36,0,14.08,8,22.13,8,46.93,0,136.47-193.94,164.94-246.75,23.22-43.05,114.65-234,135.44-234,11.4,0,54.31,7.38,54.31,22.8,0,14.75-32.19,81.13-38.89,95.88"/><path class="cls-5" d="M635.83,362.51c-6,8.71-20.78,30.17-35.54,47.6l22.13,6c6.7-22.8,11.4-40.9,15.42-52.3ZM802.12,576.4c-42.92,0-81.13-37.56-122-73.76C656.61,563.66,615.72,618,526.54,618c-61,0-101.25-43.58-101.25-99.24,0-65,60.35-114,128.74-114h9.39c15.42-15.42,36.21-41.57,65-81.8,42.24-57.66,85.15-87.16,115.32-87.16,16.76,0,28.83,6,28.83,14.75,0,22.12-13.29,30.35-28.83,40.22-14,8.89-29.5,19.45-37.55,42.92-6.7,19.44,0,81.8-10.05,114.65,51,25.48,100.57,52.3,154.21,52.3,26.15,0,32.18-16.09,34.87-16.09s4,.67,4,4c0,9.39-39.56,87.84-87.16,87.84M553.36,437.6c-42.24,0-62.36,25.48-62.36,49.62,0,22.13,16.76,42.91,49.62,42.91,41.57,0,59.67-36.88,71.74-77.11-18.77-9.38-38.21-15.42-59-15.42"/><g class="cls-23"><text class="cls-4" transform="translate(98.74 609.55)">.</text><path class="cls-5" d="M444.05,388.28c-28.83,61-199.8,401.63-264.84,401.63-16.76,0-79.79-17.43-79.79-39.56,0-3.35,2.68-8.05,6.7-8.05,3.36,0,14.08,8.05,22.13,8.05,46.93,0,136.78-193.77,164.94-246.74,23.47-42.91,114.66-234,135.44-234,11.4,0,54.31,7.38,54.31,22.8C482.94,307.15,450.76,373.53,444.05,388.28Zm356,185.06c-42.91,0-81.13-37.55-122-73.76-23.47,61-64.37,115.33-153.55,115.33-61,0-101.24-43.58-101.24-99.23,0-65,60.34-114,128.73-114h9.39c15.42-15.42,36.21-41.57,65-81.8,42.24-57.66,85.15-87.16,115.32-87.16,16.77,0,28.84,6,28.84,14.75,0,22.12-13.41,30.17-28.84,40.23-14.08,8.71-29.5,19.44-37.54,42.91-6.71,19.44,0,81.8-10.06,114.65,51,25.48,100.57,52.3,154.21,52.3,26.15,0,32.19-16.09,34.87-16.09s4,.67,4,4C887.25,494.89,847.69,573.34,800.09,573.34ZM495.68,236.75c-29.5,0-61.68-22.8-61.68-55,0-24.14,37.54-61,62.35-61,29.5,0,61.69,22.8,61.69,55C558,199.2,519.82,236.75,495.68,236.75Zm55.65,197.8C509.09,434.55,489,460,489,484.16c0,22.13,16.76,42.92,49.61,42.92,41.57,0,59.68-36.88,71.75-77.11C591.56,440.58,572.12,434.55,551.33,434.55Zm82.47-75.1c-6,8.72-20.78,30.17-35.53,47.61l22.12,6c6.71-22.8,11.4-40.9,15.43-52.3Z"/></g></g><text class="cls-24" transform="translate(98.74 609.55)">.</text><path d="M444.05,388.28c-28.83,61-199.8,401.63-264.84,401.63-16.76,0-79.79-17.43-79.79-39.56,0-3.35,2.68-8.05,6.7-8.05,3.36,0,14.08,8.05,22.13,8.05,46.93,0,136.78-193.77,164.94-246.74,23.47-42.91,114.66-234,135.44-234,11.4,0,54.31,7.38,54.31,22.8C482.94,307.15,450.76,373.53,444.05,388.28Zm356,185.06c-42.91,0-81.13-37.55-122-73.76-23.47,61-64.37,115.33-153.55,115.33-61,0-101.24-43.58-101.24-99.23,0-65,60.34-114,128.73-114h9.39c15.42-15.42,36.21-41.57,65-81.8,42.24-57.66,85.15-87.16,115.32-87.16,16.77,0,28.84,6,28.84,14.75,0,22.12-13.41,30.17-28.84,40.23-14.08,8.71-29.5,19.44-37.54,42.91-6.71,19.44,0,81.8-10.06,114.65,51,25.48,100.57,52.3,154.21,52.3,26.15,0,32.19-16.09,34.87-16.09s4,.67,4,4C887.25,494.89,847.69,573.34,800.09,573.34ZM495.68,236.75c-29.5,0-61.68-22.8-61.68-55,0-24.14,37.54-61,62.35-61,29.5,0,61.69,22.8,61.69,55C558,199.2,519.82,236.75,495.68,236.75Zm55.65,197.8C509.09,434.55,489,460,489,484.16c0,22.13,16.76,42.92,49.61,42.92,41.57,0,59.68-36.88,71.75-77.11C591.56,440.58,572.12,434.55,551.33,434.55Zm82.47-75.1c-6,8.72-20.78,30.17-35.53,47.61l22.12,6c6.71-22.8,11.4-40.9,15.43-52.3Z"/><path class="cls-25" d="M149.07,772.1a46,46,0,0,0,26.59,3.1l3-1a15.6,15.6,0,0,0,3-.92,56.64,56.64,0,0,0,5.67-2.71c1.78-1.2,3.66-2.17,5.46-3.3l5.1-4.16c1.85-1.15,3.3-3,5-4.5s3.32-3,4.81-4.82l4.63-5.19a69.77,69.77,0,0,0,4.59-5.35c1.51-1.84,2.92-3.75,4.51-5.56a63.66,63.66,0,0,0,4.59-5.63,143.38,143.38,0,0,1,9.64-11.39l.71.33-6.73,13.08a62,62,0,0,1-3.69,6.37l-3.9,6.25c-.66,1-1.28,2.1-2,3.1l-2.25,2.93-4.5,5.85a64.18,64.18,0,0,1-5,5.43c-1.78,1.7-3.29,3.7-5.34,5.12a49.07,49.07,0,0,1-26.66,12.19,39.22,39.22,0,0,1-27.71-8.69Z"/><path class="cls-25" d="M519.2,144.48a32.72,32.72,0,0,1,11.19,10.23,31.5,31.5,0,0,1,5.78,14.73,22.43,22.43,0,0,1-4.28,15.82c-3.11,4.58-7.95,7.2-12.69,8.74,2.92-4.24,5.91-7.75,7.38-11.81a24.61,24.61,0,0,0,1.78-12A51.42,51.42,0,0,0,525,157.64c-1.69-4.26-3.69-8.55-5.82-13.16"/><path class="cls-25" d="M440.74,524.62c5,7.57,9.72,14.75,15.15,21.18a127.48,127.48,0,0,0,16.58,17.46c11.85,10,24.69,16.35,38.93,18.89,14.22,2.73,29.81,1.37,46-1.1,16.17-2.92,32.7-7.53,50.57-11.38l.78,1.36c-15,8.94-30.9,16.75-47.74,22-8.47,2.35-17,4.61-25.88,5.35a92.51,92.51,0,0,1-26.52-.73,78.59,78.59,0,0,1-24.94-9.15,83.14,83.14,0,0,1-20.49-16.84c-11.8-13.27-19.75-29.55-24-46.66Z"/><path class="cls-25" d="M747.67,540.49a87.14,87.14,0,0,0,26.47,12.66,64.48,64.48,0,0,0,28.46,2A51.38,51.38,0,0,0,816,551a105.43,105.43,0,0,0,12.45-6.52c8.17-4.81,15.71-10.92,23.59-17.32l.62.49A65.64,65.64,0,0,1,832.83,551c-8.41,6.37-19.08,9.48-29.47,10.35a69.46,69.46,0,0,1-30.46-4.51,84.41,84.41,0,0,1-25.75-15.79Z"/><path class="cls-25" d="M148.94,597.14a89.73,89.73,0,0,0,15.56,2.08,58.1,58.1,0,0,0,15.19-.84c4.94-1,9.12-3.26,13.34-5,4.2-2,7.88-4.79,12.46-8.25l.69.38a22.52,22.52,0,0,1-9.09,14.6c-5,3.54-11.12,4.22-16.68,4.54A63.25,63.25,0,0,1,164,603.11a76.21,76.21,0,0,1-15.29-5.23Z"/></g></g></g></svg>